<?xml version="1.0" encoding="UTF-8" standalone="no"?>
<!DOCTYPE svg PUBLIC "-//W3C//DTD SVG 1.1//EN"
 "http://www.w3.org/Graphics/SVG/1.1/DTD/svg11.dtd">
<!-- Generated by graphviz version 2.38.0 (20140413.2041)
 -->
<!-- Title: snakemake_dag Pages: 1 -->
<svg width="461pt" height="404pt"
 viewBox="0.00 0.00 461.00 404.00" xmlns="http://www.w3.org/2000/svg" xmlns:xlink="http://www.w3.org/1999/xlink">
<g id="graph0" class="graph" transform="scale(1 1) rotate(0) translate(4 400)">
<title>snakemake_dag</title>
<polygon fill="white" stroke="none" points="-4,4 -4,-400 457,-400 457,4 -4,4"/>
<!-- 0 -->
<g id="node1" class="node"><title>0</title>
<path fill="none" stroke="#56a9d8" stroke-width="2" d="M184,-36C184,-36 154,-36 154,-36 148,-36 142,-30 142,-24 142,-24 142,-12 142,-12 142,-6 148,-0 154,-0 154,-0 184,-0 184,-0 190,-0 196,-6 196,-12 196,-12 196,-24 196,-24 196,-30 190,-36 184,-36"/>
<text text-anchor="middle" x="169" y="-15.5" font-family="sans" font-size="10.00">all</text>
</g>
<!-- 1 -->
<g id="node2" class="node"><title>1</title>
<path fill="none" stroke="#59d856" stroke-width="2" stroke-dasharray="5,2" d="M109.5,-180C109.5,-180 78.5,-180 78.5,-180 72.5,-180 66.5,-174 66.5,-168 66.5,-168 66.5,-156 66.5,-156 66.5,-150 72.5,-144 78.5,-144 78.5,-144 109.5,-144 109.5,-144 115.5,-144 121.5,-150 121.5,-156 121.5,-156 121.5,-168 121.5,-168 121.5,-174 115.5,-180 109.5,-180"/>
<text text-anchor="middle" x="94" y="-159.5" font-family="sans" font-size="10.00">bam_qc</text>
</g>
<!-- 1&#45;&gt;0 -->
<g id="edge1" class="edge"><title>1&#45;&gt;0</title>
<path fill="none" stroke="grey" stroke-width="2" d="M101.326,-143.979C109.291,-125.849 122.675,-96.4546 136,-72 140.875,-63.0531 146.619,-53.5308 151.937,-45.0619"/>
<polygon fill="grey" stroke="grey" stroke-width="2" points="155.058,-46.6773 157.479,-36.3628 149.154,-42.9163 155.058,-46.6773"/>
</g>
<!-- 2 -->
<g id="node3" class="node"><title>2</title>
<path fill="none" stroke="#56d882" stroke-width="2" stroke-dasharray="5,2" d="M100.5,-396C100.5,-396 45.5,-396 45.5,-396 39.5,-396 33.5,-390 33.5,-384 33.5,-384 33.5,-372 33.5,-372 33.5,-366 39.5,-360 45.5,-360 45.5,-360 100.5,-360 100.5,-360 106.5,-360 112.5,-366 112.5,-372 112.5,-372 112.5,-384 112.5,-384 112.5,-390 106.5,-396 100.5,-396"/>
<text text-anchor="middle" x="73" y="-381" font-family="sans" font-size="10.00">trimmomatic</text>
<text text-anchor="middle" x="73" y="-370" font-family="sans" font-size="10.00">sample: A</text>
</g>
<!-- 2&#45;&gt;0 -->
<g id="edge2" class="edge"><title>2&#45;&gt;0</title>
<path fill="none" stroke="grey" stroke-width="2" d="M57.1601,-359.655C35.6902,-334.273 0,-284.618 0,-235 0,-235 0,-235 0,-161 0,-92.3788 82.683,-50.2803 132.382,-31.174"/>
<polygon fill="grey" stroke="grey" stroke-width="2" points="133.692,-34.4212 141.847,-27.6583 131.254,-27.8592 133.692,-34.4212"/>
</g>
<!-- 3 -->
<g id="node4" class="node"><title>3</title>
<path fill="none" stroke="#56d8d8" stroke-width="2" stroke-dasharray="5,2" d="M161,-324C161,-324 131,-324 131,-324 125,-324 119,-318 119,-312 119,-312 119,-300 119,-300 119,-294 125,-288 131,-288 131,-288 161,-288 161,-288 167,-288 173,-294 173,-300 173,-300 173,-312 173,-312 173,-318 167,-324 161,-324"/>
<text text-anchor="middle" x="146" y="-303.5" font-family="sans" font-size="10.00">bowtie2</text>
</g>
<!-- 2&#45;&gt;3 -->
<g id="edge10" class="edge"><title>2&#45;&gt;3</title>
<path fill="none" stroke="grey" stroke-width="2" d="M91.0449,-359.697C100.062,-351.05 111.118,-340.449 120.943,-331.027"/>
<polygon fill="grey" stroke="grey" stroke-width="2" points="123.367,-333.552 128.163,-324.104 118.522,-328.499 123.367,-333.552"/>
</g>
<!-- 3&#45;&gt;0 -->
<g id="edge3" class="edge"><title>3&#45;&gt;0</title>
<path fill="none" stroke="grey" stroke-width="2" d="M124.985,-287.806C92.8772,-259.308 37.2952,-199.872 57,-144 71.9308,-101.665 109.454,-65.0133 136.969,-42.5372"/>
<polygon fill="grey" stroke="grey" stroke-width="2" points="139.506,-44.9918 145.151,-36.0264 135.147,-39.5144 139.506,-44.9918"/>
</g>
<!-- 3&#45;&gt;1 -->
<g id="edge9" class="edge"><title>3&#45;&gt;1</title>
<path fill="none" stroke="grey" stroke-width="2" d="M130.357,-287.619C122.407,-277.831 113.325,-264.99 108,-252 99.9048,-232.252 96.4618,-208.27 95.0116,-190.179"/>
<polygon fill="grey" stroke="grey" stroke-width="2" points="98.4931,-189.779 94.355,-180.025 91.5077,-190.23 98.4931,-189.779"/>
</g>
<!-- 6 -->
<g id="node7" class="node"><title>6</title>
<path fill="none" stroke="#afd856" stroke-width="2" stroke-dasharray="5,2" d="M162.5,-252C162.5,-252 129.5,-252 129.5,-252 123.5,-252 117.5,-246 117.5,-240 117.5,-240 117.5,-228 117.5,-228 117.5,-222 123.5,-216 129.5,-216 129.5,-216 162.5,-216 162.5,-216 168.5,-216 174.5,-222 174.5,-228 174.5,-228 174.5,-240 174.5,-240 174.5,-246 168.5,-252 162.5,-252"/>
<text text-anchor="middle" x="146" y="-231.5" font-family="sans" font-size="10.00">bam_idx</text>
</g>
<!-- 3&#45;&gt;6 -->
<g id="edge12" class="edge"><title>3&#45;&gt;6</title>
<path fill="none" stroke="grey" stroke-width="2" d="M146,-287.697C146,-279.983 146,-270.712 146,-262.112"/>
<polygon fill="grey" stroke="grey" stroke-width="2" points="149.5,-262.104 146,-252.104 142.5,-262.104 149.5,-262.104"/>
</g>
<!-- 9 -->
<g id="node10" class="node"><title>9</title>
<path fill="none" stroke="#5682d8" stroke-width="2" stroke-dasharray="5,2" d="M255,-252C255,-252 205,-252 205,-252 199,-252 193,-246 193,-240 193,-240 193,-228 193,-228 193,-222 199,-216 205,-216 205,-216 255,-216 255,-216 261,-216 267,-222 267,-228 267,-228 267,-240 267,-240 267,-246 261,-252 255,-252"/>
<text text-anchor="middle" x="230" y="-231.5" font-family="sans" font-size="10.00">MeDIP_DMR</text>
</g>
<!-- 3&#45;&gt;9 -->
<g id="edge14" class="edge"><title>3&#45;&gt;9</title>
<path fill="none" stroke="grey" stroke-width="2" d="M166.764,-287.697C177.241,-278.965 190.111,-268.24 201.5,-258.75"/>
<polygon fill="grey" stroke="grey" stroke-width="2" points="204.033,-261.195 209.475,-252.104 199.552,-255.817 204.033,-261.195"/>
</g>
<!-- 10 -->
<g id="node11" class="node"><title>10</title>
<path fill="none" stroke="#d85656" stroke-width="2" stroke-dasharray="5,2" d="M378,-180C378,-180 312,-180 312,-180 306,-180 300,-174 300,-168 300,-168 300,-156 300,-156 300,-150 306,-144 312,-144 312,-144 378,-144 378,-144 384,-144 390,-150 390,-156 390,-156 390,-168 390,-168 390,-174 384,-180 378,-180"/>
<text text-anchor="middle" x="345" y="-159.5" font-family="sans" font-size="10.00">bam2bedgraph</text>
</g>
<!-- 3&#45;&gt;10 -->
<g id="edge16" class="edge"><title>3&#45;&gt;10</title>
<path fill="none" stroke="grey" stroke-width="2" d="M173.247,-298.394C201.114,-290.662 244.645,-275.797 276,-252 298.587,-234.858 317.727,-208.574 330.077,-189.008"/>
<polygon fill="grey" stroke="grey" stroke-width="2" points="333.184,-190.636 335.42,-180.28 327.214,-186.981 333.184,-190.636"/>
</g>
<!-- 11 -->
<g id="node12" class="node"><title>11</title>
<path fill="none" stroke="#d6d856" stroke-width="2" stroke-dasharray="5,2" d="M382.5,-252C382.5,-252 335.5,-252 335.5,-252 329.5,-252 323.5,-246 323.5,-240 323.5,-240 323.5,-228 323.5,-228 323.5,-222 329.5,-216 335.5,-216 335.5,-216 382.5,-216 382.5,-216 388.5,-216 394.5,-222 394.5,-228 394.5,-228 394.5,-240 394.5,-240 394.5,-246 388.5,-252 382.5,-252"/>
<text text-anchor="middle" x="359" y="-231.5" font-family="sans" font-size="10.00">bam2count</text>
</g>
<!-- 3&#45;&gt;11 -->
<g id="edge17" class="edge"><title>3&#45;&gt;11</title>
<path fill="none" stroke="grey" stroke-width="2" d="M173.147,-296.296C205.529,-285.884 261.28,-267.87 309,-252 310.441,-251.521 311.905,-251.032 313.382,-250.538"/>
<polygon fill="grey" stroke="grey" stroke-width="2" points="314.877,-253.728 323.24,-247.223 312.646,-247.093 314.877,-253.728"/>
</g>
<!-- 4 -->
<g id="node5" class="node"><title>4</title>
<path fill="none" stroke="#56d8a9" stroke-width="2" stroke-dasharray="5,2" d="M269.5,-180C269.5,-180 190.5,-180 190.5,-180 184.5,-180 178.5,-174 178.5,-168 178.5,-168 178.5,-156 178.5,-156 178.5,-150 184.5,-144 190.5,-144 190.5,-144 269.5,-144 269.5,-144 275.5,-144 281.5,-150 281.5,-156 281.5,-156 281.5,-168 281.5,-168 281.5,-174 275.5,-180 269.5,-180"/>
<text text-anchor="middle" x="230" y="-159.5" font-family="sans" font-size="10.00">MeDIP_DMR_anno</text>
</g>
<!-- 4&#45;&gt;0 -->
<g id="edge4" class="edge"><title>4&#45;&gt;0</title>
<path fill="none" stroke="grey" stroke-width="2" d="M222.516,-143.825C218.006,-133.457 212.156,-119.977 207,-108 198.004,-87.1019 187.892,-63.4086 180.362,-45.7253"/>
<polygon fill="grey" stroke="grey" stroke-width="2" points="183.392,-43.9054 176.255,-36.0747 176.951,-46.6467 183.392,-43.9054"/>
</g>
<!-- 5 -->
<g id="node6" class="node"><title>5</title>
<path fill="none" stroke="#80d856" stroke-width="2" stroke-dasharray="5,2" d="M368.5,-108C368.5,-108 327.5,-108 327.5,-108 321.5,-108 315.5,-102 315.5,-96 315.5,-96 315.5,-84 315.5,-84 315.5,-78 321.5,-72 327.5,-72 327.5,-72 368.5,-72 368.5,-72 374.5,-72 380.5,-78 380.5,-84 380.5,-84 380.5,-96 380.5,-96 380.5,-102 374.5,-108 368.5,-108"/>
<text text-anchor="middle" x="348" y="-93" font-family="sans" font-size="10.00">fastqc</text>
<text text-anchor="middle" x="348" y="-82" font-family="sans" font-size="10.00">sample: A</text>
</g>
<!-- 5&#45;&gt;0 -->
<g id="edge5" class="edge"><title>5&#45;&gt;0</title>
<path fill="none" stroke="grey" stroke-width="2" d="M315.461,-75.7715C312.266,-74.4903 309.072,-73.2158 306,-72 272.104,-58.5844 233.346,-43.626 205.725,-33.0306"/>
<polygon fill="grey" stroke="grey" stroke-width="2" points="206.673,-29.6456 196.082,-29.3354 204.168,-36.182 206.673,-29.6456"/>
</g>
<!-- 6&#45;&gt;0 -->
<g id="edge6" class="edge"><title>6&#45;&gt;0</title>
<path fill="none" stroke="grey" stroke-width="2" d="M147.843,-215.849C151.822,-178.832 161.242,-91.1809 166.057,-46.3863"/>
<polygon fill="grey" stroke="grey" stroke-width="2" points="169.559,-46.5492 167.148,-36.2325 162.599,-45.8011 169.559,-46.5492"/>
</g>
<!-- 7 -->
<g id="node8" class="node"><title>7</title>
<path fill="none" stroke="#d8ac56" stroke-width="2" d="M441,-108C441,-108 411,-108 411,-108 405,-108 399,-102 399,-96 399,-96 399,-84 399,-84 399,-78 405,-72 411,-72 411,-72 441,-72 441,-72 447,-72 453,-78 453,-84 453,-84 453,-96 453,-96 453,-102 447,-108 441,-108"/>
<text text-anchor="middle" x="426" y="-87.5" font-family="sans" font-size="10.00">report</text>
</g>
<!-- 7&#45;&gt;0 -->
<g id="edge7" class="edge"><title>7&#45;&gt;0</title>
<path fill="none" stroke="grey" stroke-width="2" d="M398.764,-75.769C395.511,-74.4029 392.206,-73.1109 389,-72 326.281,-50.2681 250.522,-34.136 206.254,-25.6781"/>
<polygon fill="grey" stroke="grey" stroke-width="2" points="206.713,-22.203 196.238,-23.7929 205.418,-29.0822 206.713,-22.203"/>
</g>
<!-- 8 -->
<g id="node9" class="node"><title>8</title>
<path fill="none" stroke="#d88556" stroke-width="2" stroke-dasharray="5,2" d="M285.5,-108C285.5,-108 228.5,-108 228.5,-108 222.5,-108 216.5,-102 216.5,-96 216.5,-96 216.5,-84 216.5,-84 216.5,-78 222.5,-72 228.5,-72 228.5,-72 285.5,-72 285.5,-72 291.5,-72 297.5,-78 297.5,-84 297.5,-84 297.5,-96 297.5,-96 297.5,-102 291.5,-108 285.5,-108"/>
<text text-anchor="middle" x="257" y="-87.5" font-family="sans" font-size="10.00">bedgraph2tdf</text>
</g>
<!-- 8&#45;&gt;0 -->
<g id="edge8" class="edge"><title>8&#45;&gt;0</title>
<path fill="none" stroke="grey" stroke-width="2" d="M235.247,-71.6966C224.164,-62.8807 210.526,-52.0321 198.51,-42.4742"/>
<polygon fill="grey" stroke="grey" stroke-width="2" points="200.507,-39.5905 190.503,-36.1043 196.15,-45.0687 200.507,-39.5905"/>
</g>
<!-- 9&#45;&gt;4 -->
<g id="edge11" class="edge"><title>9&#45;&gt;4</title>
<path fill="none" stroke="grey" stroke-width="2" d="M230,-215.697C230,-207.983 230,-198.712 230,-190.112"/>
<polygon fill="grey" stroke="grey" stroke-width="2" points="233.5,-190.104 230,-180.104 226.5,-190.104 233.5,-190.104"/>
</g>
<!-- 10&#45;&gt;8 -->
<g id="edge13" class="edge"><title>10&#45;&gt;8</title>
<path fill="none" stroke="grey" stroke-width="2" d="M323.247,-143.697C312.164,-134.881 298.526,-124.032 286.51,-114.474"/>
<polygon fill="grey" stroke="grey" stroke-width="2" points="288.507,-111.59 278.503,-108.104 284.15,-117.069 288.507,-111.59"/>
</g>
<!-- 11&#45;&gt;10 -->
<g id="edge15" class="edge"><title>11&#45;&gt;10</title>
<path fill="none" stroke="grey" stroke-width="2" d="M355.539,-215.697C353.997,-207.983 352.142,-198.712 350.422,-190.112"/>
<polygon fill="grey" stroke="grey" stroke-width="2" points="353.814,-189.224 348.421,-180.104 346.95,-190.597 353.814,-189.224"/>
</g>
</g>
</svg>
